# xmcd
#
# Track frame offsets: 
#        150
#        20457
#        39887
#        53947
#        69932
#        94522
#        125480
#        138267
#        157127
#
# Disc length: 2543 seconds
#
# Revision: 2
# Processed by: cddbd v1.5.2PL0 Copyright (c) Steve Scherf et al.
# Submitted via: ExactAudioCopy v1.0b3
#
DISCID=6f09ed09
DTITLE=Rolling Stones - Let It Bleed
DYEAR=1969
DGENRE=Blues
TTITLE0=Gimme Shelter
TTITLE1=Love In Vain
TTITLE2=Country Honk
TTITLE3=Live With Me
TTITLE4=Let It Bleed
TTITLE5=Midnight Rambler
TTITLE6=You Got The Silver
TTITLE7=Monkey Man
TTITLE8=You Can't Always Get What You Want
EXTD=
EXTT0=
EXTT1=
EXTT2=
EXTT3=
EXTT4=
EXTT5=
EXTT6=
EXTT7=
EXTT8=
PLAYORDER=
